<svg viewBox="0 0 154.34 315.62" xmlns="http://www.w3.org/2000/svg"><path d="m79.63 1.83c-5.3-3.6-11.4 4.2-9.4 9.2 0 .1.1.2.2.4-.3 1.7-.2 3.7 1.2 4.7v.1c.4 1.3.9 2.6 1.3 4a19.51 19.51 0 0 1 -.2 7.6v.17c-.3.4-.6.6-.7 1.1-.8 3 2.8 2.9 4.4 1.7a1.36 1.36 0 0 0 -.2-2.2.1.1 0 0 1 .1-.1 5.82 5.82 0 0 0 .4-3.2c0-.6-.1-1.2-.1-1.7a1.46 1.46 0 0 0 .6-.9v-.3l.3-2.1.3-.3a5.29 5.29 0 0 0 1.5-3.2 1.38 1.38 0 0 0 1-1.3.9.9 0 0 0 -.1-.5c2.6-4 3.6-10.27-.6-13.17z" fill="#735aa3"/><path d="m70.33 21.83a2.51 2.51 0 0 0 -.4-.7 3.81 3.81 0 0 0 -1.3-.9 1.33 1.33 0 0 0 -.3-.8 26.87 26.87 0 0 0 -4.5-3.7 8.28 8.28 0 0 0 -4.4-1.9 1.25 1.25 0 0 0 -1.3.8l-.3.3c-1.1.7-.9 2.3-.1 3.4a3.38 3.38 0 0 0 .6 1.2l.2.2a3.59 3.59 0 0 0 1 .7v.1a1.45 1.45 0 0 0 1.6.7c2.2.9 4.9.5 6.6 2.1a1.22 1.22 0 0 0 .9.4 1.1 1.1 0 0 0 1 .5 1.33 1.33 0 0 0 .7-2.4z" fill="#735aa3"/><path d="m83.63 19.43a2.6 2.6 0 0 0 -3.2.6 3.53 3.53 0 0 0 -.4 3.7c.1.1.1.2.2.3a2.46 2.46 0 0 0 -.1 1.7c-.2 1.3 1.5 2.7 2.5 1.4.6-.8 1.2-1.5 1.9-2.3a1.06 1.06 0 0 0 0-1.4 3.55 3.55 0 0 0 .4-.9 3.06 3.06 0 0 0 -1.3-3.1z" fill="#735aa3"/><path d="m113.83 248.93c-1.5-.4-3.4.1-4.9 0a33.94 33.94 0 0 1 -5.5-.4 37.35 37.35 0 0 1 -7.3-1.9 5.3 5.3 0 0 0 -3.4-1.7c-2.9-1.4-5.8-2.9-8.7-4.3-.1-.1-.2-.2-.3-.2a77.88 77.88 0 0 1 -11-8.9c-2.3-2.3-4.3-4.7-6.5-7.1a7.64 7.64 0 0 0 -.9-.9c-.4-.4-.7-.8-1.1-1.2a1.19 1.19 0 0 0 -1.1-.4c-.2-.4-.5-.8-.7-1.2a30 30 0 0 0 -3.3-5.4 16.31 16.31 0 0 1 -.6-4.5 3.26 3.26 0 0 0 -1.6-3 23.56 23.56 0 0 1 7.8-5.5 6.21 6.21 0 0 0 3.7 3 .37.37 0 0 1 .3.1l1.5 2.5a1.45 1.45 0 0 0 .1 1.1 5.94 5.94 0 0 0 .4.8.6.6 0 0 0 .1.4 7.76 7.76 0 0 0 1.2 2.2 23.49 23.49 0 0 0 2.3 3.2 50.2 50.2 0 0 0 6.6 10.3 24.16 24.16 0 0 0 2.7 3.6 3.81 3.81 0 0 0 .9 1.3 34.4 34.4 0 0 0 3.6 2.8 1.2 1.2 0 0 0 .4 1.2l1.2 1.2a1.08 1.08 0 0 0 .7.3 43.71 43.71 0 0 0 7.6 4.3 3.55 3.55 0 0 0 .9.4 39.86 39.86 0 0 0 12.4 2.7 1.25 1.25 0 0 0 1.1-.4h.7a3.45 3.45 0 0 0 1.8-.5 4.18 4.18 0 0 0 2.3-1.8c5.3-8.5 1.9-17.9-1.8-26.2a3.13 3.13 0 0 0 -1.7-1.7 1.27 1.27 0 0 0 .1-.6l1.2-10.2a2.67 2.67 0 0 0 -.3-1.8 26.36 26.36 0 0 0 .1-9.3c-1.1-7-3.8-15.4-8-21.3-3.9-5.5-10.6-9.5-16.6-12.2a28.18 28.18 0 0 0 -13.4-2.3 4.23 4.23 0 0 0 -2.7-.7c-2.3.4-4.5 1.1-6.7 1.7a3.54 3.54 0 0 0 -2.4 2 24.08 24.08 0 0 0 -3.3 1.5 32.9 32.9 0 0 0 -17.8 14.6 35.39 35.39 0 0 0 -9.3 27.3 8.74 8.74 0 0 0 -.8 1c-2 3.3.7 7 4 7.1a17.89 17.89 0 0 0 -.3 8.3 2.37 2.37 0 0 0 .9 1.5c-.4 4 1.7 8.8 4.8 11.7a3 3 0 0 0 .4 2.1 3.74 3.74 0 0 0 1.5 1.3 2.8 2.8 0 0 0 2 .2l.7-.3a2 2 0 0 0 .7-.6h.8c-.1.2-.1.4-.2.6a35.54 35.54 0 0 1 -20.7 25.1 4.13 4.13 0 0 0 -1.1.7q-4.35 1.2-8.7 2.1c-3.1.6-6.2.7-9.1 1.9l.1.1c-2 1.2-2.4 4.5.6 5.2 6 1.6 14.2-1 20.1-2.7q2.7-.75 5.4-1.8c3.2 1.5 6.6-.6 9.3-2.7a13.57 13.57 0 0 0 11.9-6.7.35.35 0 0 1 .1-.2c2.6-.6 5-2.1 5.9-4.8a5.76 5.76 0 0 0 .2-2.6c2.1 1.6 4 3.6 6.6 4.3a8.13 8.13 0 0 0 3 2.1 6.23 6.23 0 0 0 -3.6 2c-2.1 2.4-2.6 5.9-2.6 9.3a3.45 3.45 0 0 0 -2 3.2 5.84 5.84 0 0 0 .4 1.8c0 .2-.1.4-.1.6-1.2 13.1 6 26 18.3 31a2.34 2.34 0 0 0 1.1.2 5.32 5.32 0 0 0 5.1 2 16.35 16.35 0 0 0 10-.6 3.67 3.67 0 0 0 1.9-1.5c.7-.1 1.4-.3 2-.4 4.6-1.2 2.7-8.4-2-7.2a17.54 17.54 0 0 1 -9.1-.1 4.3 4.3 0 0 0 -.9-1c-3.6-3.5-7.1-5.7-8.4-10.9-1.4-5.4.4-9.9 2.9-14.6v-.1c.2-.2.4-.3.6-.5a3 3 0 0 0 1.1-3c1.8 1.3 3.6 2.5 5.4 3.8l.1.1a3.3 3.3 0 0 0 -2.2 1.7 14.09 14.09 0 0 0 -1.4 8.6c-.1.2-.1.5-.2.7a10.25 10.25 0 0 0 7 11c5 1.6 8.4-1.4 13-2.5a3.4 3.4 0 0 0 2.5-2.9c1.6-1 1.2-4.1-1.2-4.1-.3 0-.6.1-.8.1a3.34 3.34 0 0 0 -1.5-.3 11.75 11.75 0 0 0 -3.8.9 4.13 4.13 0 0 0 -1.1-.7 6.47 6.47 0 0 0 -1.3-.4s-.6-.2-.8-.3a1.42 1.42 0 0 0 -.4-.2c-.2-.1-.4-.3-.6-.4a4 4 0 0 1 -.4-.3l-.3-.3-.7-.7a8.34 8.34 0 0 0 -1.2-.8 2.75 2.75 0 0 0 -.8-1.5 16.66 16.66 0 0 1 .6-2.9 3.92 3.92 0 0 0 1.4.8 3.23 3.23 0 0 0 2.7-.4 14.7 14.7 0 0 0 1.3-1l.2-.2a15.09 15.09 0 0 0 7-2.7c3.7-2.5 7.7-7.8 6.5-12.5 1.5-3.1 1.5-7.4-2.6-8.6zm-63.6-58.7a23.16 23.16 0 0 0 -5.8 4.5l.9-2.7a35.82 35.82 0 0 1 2.4-4.8l.3-.3c1.3-1.4 2.6-2.8 3.9-4.3.1 0 .2-.1.3-.1a101 101 0 0 0 11.5-7.8c1.4-.5 2.7-1 4.1-1.4a1.42 1.42 0 0 0 .6.2 43.82 43.82 0 0 0 9.5-1c2.1.2 4.3.3 6.4.4 1.8.7 3.6 1.5 5.5 2.3a1.56 1.56 0 0 0 .6.8c.8.5 1.6 1.1 2.4 1.6a3.09 3.09 0 0 0 1.6 1.1 5.74 5.74 0 0 0 1.6 4.1 4.51 4.51 0 0 0 1.4 1 75 75 0 0 1 .3 8 16.27 16.27 0 0 0 -1.1 2.3 13.36 13.36 0 0 1 -2.1 2 24.69 24.69 0 0 0 -1-2.9 1.4 1.4 0 0 0 .5-1.9c-.1-.3-.3-.5-.4-.8a.92.92 0 0 0 -.2-1 23.07 23.07 0 0 1 -1.4-1.9 1.22 1.22 0 0 0 -1-.6c-.2-.3-.5-.6-.7-.9a1.2 1.2 0 0 0 -1.4-.3c-5.5-6.5-15.7-6.7-23.7-4.8-6.1 1.1-11.7 4.3-15 9.2z" fill="#735aa3"/><path d="m58.53 264.93a1.4 1.4 0 0 0 -1.2-1.4 1.27 1.27 0 0 0 -1.8.1 8.52 8.52 0 0 0 -1.7 2.5c-.3.3-.7.6-1 .9a5.7 5.7 0 0 0 -1.3.1c-1.1.3-2.2.7-3.3 1a3.66 3.66 0 0 0 -1.6 1c-1.3.4-2.7.7-4 1.1a.76.76 0 0 0 -.4.2c-1.8-.2-3.6.3-4.4 2.2a1.88 1.88 0 0 0 -.2.8 15.47 15.47 0 0 0 -3.8 9.5 2.77 2.77 0 0 0 .1.9 24.45 24.45 0 0 0 -1.2 5.5c-.4 2.4-.5 5.1-.8 7.7-2.4 3.5-3.4 7.8-4.8 11.8-1.1 3.5 3.8 6.4 6.2 3.6a24.57 24.57 0 0 0 5.4-12.1l.2-.2a3.34 3.34 0 0 0 .8-3.7 3.11 3.11 0 0 0 1.7-2.1c2.4-6.9 5-12.6 10.8-17.4a3.83 3.83 0 0 0 2.9-2.6l.9-2.5a3 3 0 0 0 -.1-2.3l.3-1.8a6.11 6.11 0 0 1 .7-1.4 1.48 1.48 0 0 0 1.6-1.4z" fill="#735aa3"/><path d="m97.13 188a2 2 0 0 0 .2-.9l-.2-3a1.49 1.49 0 0 0 -1.7-1.4v-.2c-.3-1.1-.5-2.2-.8-3.3a1.33 1.33 0 0 0 -1.8-1 14 14 0 0 0 -2.7-2.1 1 1 0 0 0 -.9-.1 1.37 1.37 0 0 0 -1.3-.4 1.38 1.38 0 0 0 -.4-.3c-.8-1.5-3.1-2-5-1.9-.1 0-.2-.1-.4-.1a1.38 1.38 0 0 0 -1.5.5 1.48 1.48 0 0 0 -1.8-1.3c-.9.2-1.8.3-2.8.5l-6.1 1.2a22.1 22.1 0 0 0 -4.9.9 1.24 1.24 0 0 0 -.8.6 1.41 1.41 0 0 0 -.9-.1l-1.8.6a.6.6 0 0 0 -.4.1c-.3.1-.7.3-1 .4a1.38 1.38 0 0 0 -1 1.4.76.76 0 0 0 -.4.2c-2.6 2-5.1 4.1-7.7 6.2-1.2 1 .4 3.1 1.7 2.2a60 60 0 0 1 13.5-7.6 1.25 1.25 0 0 0 1.2.3c1-.2 1.9-.4 2.9-.7 1.2-.2 2.4-.4 3.7-.5h6a1.38 1.38 0 0 0 .4.3 11.08 11.08 0 0 0 3.5 1.2l5.3 3.8a1.32 1.32 0 0 0 1.2.2c.3 1.8 1.2 3.5 3.3 3.5.2 0 .3 0 .4-.1-.1.8-.1 1.6-.2 2.4a1.27 1.27 0 0 0 .1.6 1.63 1.63 0 0 0 2.6 1.3 3 3 0 0 0 1.2-1.9 3.49 3.49 0 0 0 -.7-1.5z" fill="#b99bc9"/><path d="m111.43 243.93c-5.4 3-11.4.2-16.4-2.3a69.32 69.32 0 0 1 -7.5-4.3.91.91 0 0 0 -.4-.8l-1.5-1.5a1.28 1.28 0 0 0 -.4-1c-1.1-1-2.2-2-3.2-3-.5-.6-.9-1.2-1.4-1.8 0-.1-.1-.2-.1-.3-.3-.5-.7-1.1-1-1.6a1.26 1.26 0 0 0 -1-.7l-.4-.4a1.58 1.58 0 0 0 -1.2-.5 9.29 9.29 0 0 1 -.5-1 1.42 1.42 0 0 0 -.2-.6c-1.1-2.1-2.3-4.1-3.4-6.2-.3-.5-.6-.7-1-.7-.5-1-1-1.9-1.5-2.9a1.64 1.64 0 0 0 .1-1 12.17 12.17 0 0 0 -2.6-5.2 3 3 0 0 0 -1.5-1.8 2.45 2.45 0 0 0 -3.8-.6 4.62 4.62 0 0 0 -.7.7c-1.2.1-2.8.8-3.1 2.3-1.7.9-2 3.4.1 4.8a3 3 0 0 0 .8.4 10.46 10.46 0 0 0 1.3 2.3 1.42 1.42 0 0 0 .2.6l3 4.2a1.87 1.87 0 0 0 .7.6 1.62 1.62 0 0 0 .4 1l3.7 4.6a1.44 1.44 0 0 0 1.5.4l.1.1a.86.86 0 0 0 .3.6c.8 1.1 1.7 2.2 2.5 3.3a1.41 1.41 0 0 0 1.4.6c.4.5.8 1.1 1.2 1.6a1.25 1.25 0 0 0 1.3.4 51.09 51.09 0 0 0 7.5 5.4 1.45 1.45 0 0 0 1.1.1 73.2 73.2 0 0 0 11.3 6.2c5.2 2.2 10.6 3.5 15.8.6 1.7-.9.2-3.53-1.5-2.6z" fill="#b99bc9"/><path d="m95.63 291.53a13.85 13.85 0 0 1 -7.2-7.3 1.28 1.28 0 0 0 .4-1c-.2-1.5-.4-3.1-.6-4.6a12.4 12.4 0 0 0 1.1-3.7 2.92 2.92 0 0 0 -.6-2.1c.1-.2.1-.3.2-.5a1.47 1.47 0 0 0 .5-.6c.1-.4.3-.7.4-1.1.6-1.6-1.8-2.4-2.6-1.1a14.59 14.59 0 0 0 -1.6 3 8.18 8.18 0 0 0 -2.7 4c-2.6 8.5 4.3 15.2 11.6 17.9 1.47.4 2.6-2.2 1.1-2.9z" fill="#b99bc9"/><path d="m90.93 305.43a21.79 21.79 0 0 1 -14.7-4.5 1.22 1.22 0 0 0 -1.4-.1l-2.1-1.8c-2.9-5.2-5.9-10.3-8.8-15.5a2.2 2.2 0 0 0 -.1-.8 25.33 25.33 0 0 1 -1.2-3.6 2 2 0 0 0 .5-1.4c-.2-1.6-.5-3.2-.7-4.9.3-2.3.7-4.6 1-6.9v-.6c.8-1.7 1.7-3.3 2.5-5a1.15 1.15 0 0 0 .1-1 3 3 0 0 0 .8-1.7l.1-.1a1.27 1.27 0 0 0 .9-.7l.3-.3a1.46 1.46 0 0 0 .5-2 8.79 8.79 0 0 1 -.6-1 1.62 1.62 0 0 0 -1.4-.7 1.06 1.06 0 0 0 -1.2-.1.78.78 0 0 0 -.4-.4 2.12 2.12 0 0 0 -2.2-1.5c-2.2 0-2.8 1.9-2.5 3.7a15.63 15.63 0 0 0 -4.2 3.2c-.4.4-.9.8-1.3 1.2a90 90 0 0 1 -25.6 9.1c-1.7.3-1.2 2.9.4 2.9a40.33 40.33 0 0 0 14.6-2.4 1.38 1.38 0 0 0 1.1.1 65.89 65.89 0 0 0 14.4-7.6c-.6 1.1-1.1 2.2-1.7 3.3a1.31 1.31 0 0 0 .3 1.8 26.47 26.47 0 0 0 -2 4.7 46.57 46.57 0 0 0 -.9 7.5c-.1.1-.3.2-.4.3l-.3.3a1.4 1.4 0 0 0 -1.9.1 51.2 51.2 0 0 0 -8.1 11q-1.65 1.35-3.3 3a1.49 1.49 0 0 0 2.1 2.1c.7-.7 1.5-1.3 2.2-2a1.42 1.42 0 0 0 .6-.2c.5-.3 1.1-.6 1.6-.9a1.34 1.34 0 0 0 .6-.7 23 23 0 0 0 7.8-5.1.1.1 0 0 0 .1.1c.9 1.3 1.8 2.7 2.7 4a1.48 1.48 0 0 0 0 1.3 31.13 31.13 0 0 0 31.8 16.5 1.35 1.35 0 1 0 0-2.7z" fill="#b99bc9"/><path d="m84.83 144.13a5.5 5.5 0 0 0 -.7-.9 2.15 2.15 0 0 0 -3.1-2.6c-.1.1-.2.1-.3.2a.9.9 0 0 0 -.5-.1 3.3 3.3 0 0 0 -2.2.2c-1.6.3-3.3 1-3.3 2.9-.1 2.2 2 3.3 3.9 3.4h.1a3.53 3.53 0 0 0 1.4-.3 7.62 7.62 0 0 0 3.3.2 2 2 0 0 0 1.4-3z" fill="#cc352b"/><path d="m147.33 134.23c-8.5 23.8-21 35.4-35.5 42.7 0 0-10-22.4-34.2-23-25.9-.6-38.2 23-38.2 23-13.1-7.7-25.5-21.5-33-42.7-14.1-39.7 3.1-101.8 70.1-101.8 69.9 0 86 59.1 70.8 101.8z" fill="#735aa3"/><path d="m40 179.33-1.6-.9c-10.6-6.2-25-18.9-33.8-43.6a86.51 86.51 0 0 1 -4.1-37.7 78.79 78.79 0 0 1 13.63-37.13c9.4-13.4 27.9-29.3 62.3-29.3 36.6 0 55.5 15.9 64.8 29.2 14.1 20 17.1 48.7 7.7 75-7.6 21.4-18.8 34.9-36.4 43.7l-1.6.8-.7-1.7c-.1-.2-9.9-21.4-32.7-22-24.5-.6-36.5 21.8-36.7 22.1zm36.6-27.1h1c21.1.5 32 17.1 34.9 22.4 15.8-8.4 26.1-21.1 33.1-41l1.6.6-1.6-.6c9-25.2 6.2-52.7-7.3-71.8-12.8-18.1-34.2-27.7-62-27.7-32.9 0-50.5 15.1-59.4 27.9a76.77 76.77 0 0 0 -13 35.5 84.22 84.22 0 0 0 4 36.2c8 22.6 20.9 34.7 30.8 40.9a53 53 0 0 1 8.9-10.6 41.88 41.88 0 0 1 29.03-11.8z" fill="#030304"/><path d="m120.23 220.93a25.81 25.81 0 0 0 -1.8-4.6 14.85 14.85 0 0 0 -2.7-4.3c2.4-7.7 2.9-18.8 1.1-26.5-2.6-11.6-8-19.3-20.3-27.1-9.9-6.2-22.7-6.4-33.4-2.4-10 3.7-20.1 10.7-25.7 19.8-3 5-4.3 10.7-5.3 16.5s-.9 13.1 3 18.1a32.53 32.53 0 0 0 -.3 4.4c0 8.1 3.5 17.2 10.7 21.5a.37.37 0 0 0 .3.1l-.9 3.6a22.82 22.82 0 0 1 -6.7 10.3c-6.9 6.4-16.3 8.8-25.2 10.7-3.2.7-7.8 2.4-6.5 6.6s6.3 4.3 9.9 4.1l3.5-.3a81.51 81.51 0 0 0 11 .4c1.8 0 3.6-.2 5.5-.3-4.6 3.6-5.5 10.8-5.8 16.2-.2 3.8-.2 7.6-1.3 11.3-1 3.5-4.1 6.2-4.7 9.8a5.73 5.73 0 0 0 4.5 6.6c3.3.8 6.3-1 8.2-3.6a14.42 14.42 0 0 0 2.3-5.8l.2-.2c0-.1.1-.2.1-.3.3-1 .7-2.1 1-3.1.4-1.3 1-2.6 1.5-3.8a6.11 6.11 0 0 1 1.3-2.2v-.1a9.79 9.79 0 0 1 3.1-2.6c3.2-1.8 7.1-2.6 9.7-5.1l.9 2.4a31.33 31.33 0 0 0 22 18 32.16 32.16 0 0 0 8.2.8 25.36 25.36 0 0 0 2.9-.4 14.7 14.7 0 0 0 6-2.3v-.13a17.64 17.64 0 0 0 7.3-3.5c1.6-1.3 3.3-3 3.8-5.1a4.4 4.4 0 0 0 -2.6-5.1 5 5 0 0 0 -1.3-.4l1.5-.6c3.4-1.4 7.7-3.9 9.6-7.2a4 4 0 0 0 -.6-5 5 5 0 0 0 -5-.5c-2 .6-3.9 1.1-6 .4a7.61 7.61 0 0 1 -2.8-1.5 5.82 5.82 0 0 1 -1-1.1.71.71 0 0 1 -.3-.6v-.1a1.94 1.94 0 0 1 1.7-1l2.5-.3a.1.1 0 0 1 .1-.1 20.57 20.57 0 0 0 14.2-12.1c1.6-3.8 2.4-10.4.1-14.5v-.2a1 1 0 0 1 -.4-.5l-.1-.1c-.1-.1-.2-.1-.3-.3v-.1h-.1a1.79 1.79 0 0 1 -.7-.5 2.94 2.94 0 0 1 -1-.3 5.7 5.7 0 0 0 -1.3.1 1.27 1.27 0 0 0 -.6.1 2.19 2.19 0 0 0 .5-.3 35.53 35.53 0 0 0 3.1-2.3 17.39 17.39 0 0 1 1.1-1.8 9 9 0 0 0 1.2-2.4v-.3a1.33 1.33 0 0 1 .3-.5.35.35 0 0 1 .1-.2h-.1a23.45 23.45 0 0 0 1.7-8 27.05 27.05 0 0 0 -.9-10.17zm-84.6-27.3a44.86 44.86 0 0 1 4.7-13.6 45.56 45.56 0 0 1 20.2-19.6c9.4-4.6 21.2-5.7 30.9-1.3 10 4.5 17.2 14.2 20.4 24.4 1.8 5.9 2.2 12.2 2.2 18.4 0 5.3-1 10.7-4 15.1a33.38 33.38 0 0 1 -4.3-1 14.07 14.07 0 0 1 -4.9-3.1 15.2 15.2 0 0 1 -4.4-8.6.75.75 0 0 0 -.1-.5 1.7 1.7 0 0 0 -.1-.7l.3-.6a18 18 0 0 0 .3-8.3 13.24 13.24 0 0 0 -.1-12.8c-2.3-4.2-6.5-7-11-8.4-7.6-2.4-16.2-1.4-23.5 2a1.39 1.39 0 0 0 -1 .5 32.34 32.34 0 0 0 -4.4 2.7c-4.9 3.5-8.7 8.3-12.2 13.1a.66.66 0 0 0 -.1.6 35.81 35.81 0 0 0 -8.4 14.6c-1.5-4.2-1.2-8.7-.5-12.9zm48.6-17.9a2.56 2.56 0 0 0 -3 .2 2 2 0 0 0 -.6 2.3 30.9 30.9 0 0 0 -15.1.4 1.9 1.9 0 0 0 .8-2.2 2.62 2.62 0 0 0 -.5-.9 32.8 32.8 0 0 1 8.8-1.8c5.8-.4 12.2.6 16.9 4.4a6.47 6.47 0 0 1 .9.8c-.2.1-.4.1-.5.2a2.39 2.39 0 0 0 -1 2.9 2.5 2.5 0 0 0 2.6 1.7 2.94 2.94 0 0 0 1.8-1 11.48 11.48 0 0 1 .9 8.7 20.75 20.75 0 0 0 -7.5-9.6 33.54 33.54 0 0 0 -3.6-2.1 2.93 2.93 0 0 0 -.9-4zm-1.9 2.1c-.4-.7.8-.7 1.2-.4.5.5.1 1.2-.5 1.4h-.1a1.45 1.45 0 0 0 -.7-.2.75.75 0 0 0 .1-.8zm11.6 2.8c0 .1.1.1.1.2a.37.37 0 0 0 -.1.3c-.1.4-.2.7-.7.8-.3.1-.6-.2-.7-.5-.3-1 .8-.9 1.4-.8zm-31.1-3.4-.3-.3c.1-.1.3-.1.4-.2a.87.87 0 0 0 1 .1c.2-.1.7-.2.7.2s-.4.4-.6.4a4.3 4.3 0 0 1 -1.2-.2zm.8 2a45 45 0 0 0 -12.4 6.6 39.35 39.35 0 0 1 7.4-6.7c.7-.5 1.5-.9 2.3-1.4a3 3 0 0 0 2.7 1.5zm-25.63 38.1c-.7-7 1.6-13.8 5.6-19.6 8.2-11.7 25-21.4 39.3-15.7 7.6 3.1 13 11.3 10.7 19.5a26.13 26.13 0 0 0 -14.3-3.1 45.22 45.22 0 0 0 -12.1 2.2c-5.3 1.9-10 4.7-12.2 7.1a26.86 26.86 0 0 0 -7 18.5 27.23 27.23 0 0 0 .4 4.2 10.36 10.36 0 0 0 -1.7 3.3 23.66 23.66 0 0 1 -8.7-16.4zm34.7 4.1a2.52 2.52 0 0 0 -1.4 3c.6 2.3 4.1 3.1 5.7 1.3a59.2 59.2 0 0 0 6.8 8.2 25.23 25.23 0 0 0 3 2.7 2 2 0 0 0 -1.1 1.1 2.39 2.39 0 0 0 .4 2 52.07 52.07 0 0 1 -5.5-3.6 2.79 2.79 0 0 0 1.3-2.2 2.59 2.59 0 0 0 -2.1-2.7 2.76 2.76 0 0 0 -3 1.2 1.42 1.42 0 0 0 -.2.6 70.79 70.79 0 0 1 -10.5-10.7 3.1 3.1 0 0 0 2.4-1 3 3 0 0 0 .2-3.8 2.8 2.8 0 0 0 -3.7-.6 2.73 2.73 0 0 0 -1.2 2.4c-2.5-3.4-4.9-7.4-4.6-11.4.1 0 .1-.1.2-.1 1.1-.8 3.5-2.7 5.4-3-2.7 1.5-2.7 3.5-2.3 4.7a3.11 3.11 0 0 0 2.6 2.3 4.66 4.66 0 0 0 3.4-1.1 104.22 104.22 0 0 0 5.4 9.9 2.09 2.09 0 0 0 .4.6 6.27 6.27 0 0 0 -1.57.2zm1.6 2.1a.75.75 0 0 0 1-.2c.2.3.4.7.6 1l-.1.1a1.67 1.67 0 0 1 -2.5 0c-.2-.3-.4-.8-.1-1.1s.8 0 1.13.2zm4.8 11.3c-.2 0-.3.1-.4.1a1.38 1.38 0 0 0 -.4-.3c-.2-.7 0-1.6.9-1.5a.85.85 0 0 1 -.07 1.7zm-13.3-14.3c-.2-.6-.5-1.4.1-1.8a1 1 0 0 1 1.3.2c.63 1.07-.47 1.8-1.37 1.6zm.5-14.3s1 2.4 1.3 2.9c-1 .7-2.6 1.8-3.4.2a2.16 2.16 0 0 1 2.13-3.1zm-46.5 62.2c-1.9.2-3.8.3-5.6.4-1.3 0-5.7-.3-4.6-2.7.5-1.2 2.6-1.5 3.7-1.7 2.2-.5 4.5-.9 6.7-1.5 7.5-1.9 14.9-4.9 20.6-10.3a25.79 25.79 0 0 0 6.6-9.7c1-2.6 1.2-5.6 2.2-8.2 2.1 5.7 6.1 10.4 10.9 14.5a15.08 15.08 0 0 1 -5.7 6.8 58.78 58.78 0 0 1 -10.4 5.8 81.71 81.71 0 0 1 -24.37 6.6zm32.1-6.9c0 .1-.1.1-.1.2a1.56 1.56 0 0 1 -.6 1.2c-.3.2-.8.3-1 0a.45.45 0 0 1 0-.5 10.91 10.91 0 0 0 1.1-.6c.1 0 .1-.1.2-.1a.1.1 0 0 0 .1-.1c.23 0 .23 0 .33-.1zm-10.6 4.9a1.15 1.15 0 0 1 -.8 1 1.38 1.38 0 0 1 -1.1.1.68.68 0 0 1 -.5-.3 22.5 22.5 0 0 0 2.43-.8zm-11 3.7h-1.4a64.55 64.55 0 0 0 8.6-2.4.76.76 0 0 0 .2.4 2.73 2.73 0 0 0 2.7.8 2.92 2.92 0 0 0 2.2-1.8 2.44 2.44 0 0 0 0-1.2 5.36 5.36 0 0 0 1.1-.5c1.6-.7 3.3-1.4 5.1-2.3a2.62 2.62 0 0 0 .5.9 2.29 2.29 0 0 0 2.5.3 2.85 2.85 0 0 0 1.4-2.5.66.66 0 0 0 -.6-.7c4.3-2.5 8.3-5.7 10.1-9.9 1 .8 2 1.6 3 2.3-.6.9-1.3 1.8-2 2.7a1.83 1.83 0 0 0 -2.4-.5c-1 .4-2.1 1.3-1.8 2.5a1.38 1.38 0 0 0 1.3 1.1 38.75 38.75 0 0 1 -15.5 8.6 52.82 52.82 0 0 1 -14.97 2.2zm30.5-6.4a2.15 2.15 0 0 0 -.8 0c-.1 0-.2.1-.3.1.1-.2.2-.5.3-.7a1.91 1.91 0 0 1 .5-1 34.5 34.5 0 0 0 6.8-7.5l1.2.9a27.43 27.43 0 0 0 -5.3 9.8l-.3-.3c0-.1-.1-.2-.1-.3a1.87 1.87 0 0 0 -1.97-1zm2.1 2.9a4.33 4.33 0 0 1 -.1.5h-.1v.1a1.88 1.88 0 0 1 -.4.9h-.4a1.08 1.08 0 0 1 -.9-.2c-.2-.1-.4-.1-.6-.3s-.4-.3-.4-.6a.94.94 0 0 1 1.4-1 3.7 3.7 0 0 1 1.1.5c.13.1.33.2.43.1zm-1.6-9.2a1.62 1.62 0 0 1 .9-.5c.2-.1.5-.2.5.1s-.8.5-1.1.5a.7.7 0 0 0 -.5.4c-.1-.2.13-.4.23-.5zm-11.7 32.7-.3.3h-.1a.84.84 0 0 1 -.7.4 4.87 4.87 0 0 1 -.7.3l-.1-.1a1.2 1.2 0 0 1 -.8-.2.37.37 0 0 1 -.2-.5v-.1c-.1-.2-.1-.4.1-.5v-.1a1.5 1.5 0 0 1 1.8-.8q.6-.15.9.6c.43.3.33.57.13.7zm2-.4v-.4a2.6 2.6 0 0 0 -3-1.8 3.37 3.37 0 0 0 -2.7 2.3 2.47 2.47 0 0 0 .5 2.2 7.46 7.46 0 0 0 -1.2.7 11.31 11.31 0 0 0 -2.6 2.3c.6-1.4 1.2-2.7 1.9-4a41.23 41.23 0 0 1 5.2-7.2 3 3 0 0 0 2.8 1.2 2.65 2.65 0 0 0 2.2-2.3 2.14 2.14 0 0 0 -1.6-2.2c.6-.5 1.2-1 1.7-1.5a39.71 39.71 0 0 0 1.1 7.7 13.29 13.29 0 0 1 -4.27 3zm-.5-7.3a.55.55 0 0 1 .3-.5.37.37 0 0 1 .3-.1l.1-.1a1 1 0 0 1 .9.2 1.38 1.38 0 0 1 .3.4v.1a.91.91 0 0 1 0 1 1.09 1.09 0 0 1 -.9.4c-.1 0-.2-.1-.3-.1s-.3-.1-.4-.1a1 1 0 0 1 -.27-1.2zm4.3-10.7v.2c0 .1 0 .1-.1.2a.37.37 0 0 1 -.1.3c-.1.6-.3 1.1-.4 1.7a21.4 21.4 0 0 1 -4.2 4.3 42.58 42.58 0 0 0 -6.4 7 43 43 0 0 0 -7.4 17.8c-.5 2.9-1.2 6.5-3.8 8.4-2.2 1.6-6.2.7-5.3-2.6.4-1.5 1.5-2.8 2.3-4.2a19.68 19.68 0 0 0 2.1-4.4 36.83 36.83 0 0 0 1.4-9.4c.2-3.5.2-7 1.2-10.4a15.84 15.84 0 0 1 1.9-4.4 7.54 7.54 0 0 1 .6-1.3 10 10 0 0 1 .8-1.4l.1-.1a4 4 0 0 1 1.3-1.6.76.76 0 0 1 .2-.4 1.13 1.13 0 0 1 .8-.5h.2q3.15-.6 6.3-1.5a43.81 43.81 0 0 0 11.3-5.5 25.2 25.2 0 0 0 -2.77 7.8zm12.1 29.2c0-.8.5-1.1 1.2-1.2a.64.64 0 0 1 .6 0c.7.1 1.5.7 1.4 1.5.03 1.77-3.17 1.3-3.17-.3zm3.1 2.5a1.76 1.76 0 0 0 .9-.8 2.9 2.9 0 1 0 -5.2-2.5 28.91 28.91 0 0 1 -8.1-12.8 2.11 2.11 0 0 1 -.4-1v-.1c-.1-.1-.1-.2-.1-.4s-.1-.3-.1-.5-.1-.1-.1-.2 0-.1-.1-.2v-.3a20.24 20.24 0 0 1 -.4-2.63 2.87 2.87 0 0 0 2.7-.2 3 3 0 0 0 1.3-3.6 2.85 2.85 0 0 0 -3.2-1.8 4.88 4.88 0 0 0 -.7.3v-3.3c.1-.3.1-.6.2-.9v-.1a4.25 4.25 0 0 1 .2-1.1 1.69 1.69 0 0 1 .3-1h-.1c.2-.8.5-1.6.7-2.5a3.86 3.86 0 0 0 1.6 1.5 3.1 3.1 0 0 0 1.3.6 2.48 2.48 0 0 0 .9-.1 29.59 29.59 0 0 0 .5 10.7 30.3 30.3 0 0 0 2.2 6.4h-.1c.1.2.3.5.4.7l.6 1.2c.1.1.1.3.2.4-.1 0-.1 0-.2.1a1.39 1.39 0 0 1 -1.3 1.6c-.8.1-1.8-.6-1.6-1.5v-.1a1.17 1.17 0 0 0 -.9-1.1.76.76 0 0 0 -.5.2 2.77 2.77 0 0 0 0 1.8c.9 2.5 4 2.4 5.5.5a35.7 35.7 0 0 0 12.2 12.8 23.41 23.41 0 0 0 12.2 3.6 28.12 28.12 0 0 1 -20.77-3.67zm-13.8-24.1a1.28 1.28 0 0 1 1.1-1.2h.4a1.85 1.85 0 0 1 1.2.5 1.2 1.2 0 0 1 -.2 1.8 1.4 1.4 0 0 1 -1.8.3c-.37-.1-.67-.8-.67-1.4zm47.3 17.3c1 1.1-.3 2.5-1.1 3.3a13.94 13.94 0 0 1 -4.8 3.2 18.3 18.3 0 0 1 -12 .5c-8.5-2.5-14.9-10.2-18.4-18a28.06 28.06 0 0 1 3.1-28.6c.7.5 1.5 1 2.2 1.5l12.7 8.9a17 17 0 0 0 -4.4 19 16.18 16.18 0 0 0 8 8.1 16.85 16.85 0 0 0 5.4 1.6c2.2.3 4.3-.2 6.5-.4a4.68 4.68 0 0 1 2.83.9zm-17.6-22.7c.4.2.4.7.2 1.1a1.37 1.37 0 0 1 -1.3.6 1 1 0 0 0 0 1.9 4.39 4.39 0 0 0 2.2-.7 30.85 30.85 0 0 0 0 4.3 1.88 1.88 0 0 0 -.8-.2 2 2 0 0 0 -2 1.5 2.52 2.52 0 0 0 1 2.5 2.75 2.75 0 0 0 2.5.2c.6 2.5 4.2 5.8 7 7.3-6.6 1.4-11.5-6.2-11.8-10.9a14.69 14.69 0 0 1 1.3-7.2 1.42 1.42 0 0 1 1.73-.4zm-.5-1.93a11.85 11.85 0 0 1 2.5-2.5c.3.2.5.4.8.6-.4 1-.8 2-1.1 3a2.42 2.42 0 0 0 -2.2-1.1zm1.3 11.8c-.1.1-.2.2-.3.2a.6.6 0 0 1 -.4.1h-.1a1.33 1.33 0 0 1 -.8-.3.44.44 0 0 1 -.1-.5v-.1c0-.1 0-.2.1-.2s.1-.1.1-.2v-.1c0-.1.1-.1.1-.2a.62.62 0 0 1 .8-.1l.3.3a.76.76 0 0 1 .2.5v.1c.23.13.33.33.13.53zm22.5-1c.7-.2 2.5-.9 2.5.3 0 .9-1.4 1.9-1.9 2.4a26.32 26.32 0 0 1 -5.2 3.5c-3.9 1.9-8.1 2.1-10.8.6-6.2-3.5-5.9-11.8-3.5-18.4l5.7 4.1a3.25 3.25 0 0 0 -.4 1.4 5.66 5.66 0 0 0 2.5 4.5 11.89 11.89 0 0 0 11.13 1.63zm3.8-34c2 1.1 2.5 4 2.6 6.1a17 17 0 0 1 -2 8.6 17.85 17.85 0 0 1 -13.9 9.3 1.27 1.27 0 0 0 -.9.4c-6.2-4.4-12.4-8.7-18.6-13.1-5.7-4-11.6-7.8-17-12.2-.4-.3-.7-.6-1.1-.9a8 8 0 0 1 -1.7-1.5c-3.8-3.4-7.2-7.5-8.8-12.4a18.25 18.25 0 0 1 -.7-2.5 1.16 1.16 0 0 0 -.2-1 23.68 23.68 0 0 1 1.8-13.9 22.19 22.19 0 0 1 4-6.1c.2 3.9 2.9 7.8 5 10.8a71.4 71.4 0 0 0 33.9 26.13c5.2 1.9 11 3.7 16.5 2.2h.2a1.53 1.53 0 0 0 .93.1zm-24.9-9.7a1.8 1.8 0 0 1 -1-.2c-.1-.1-.7-.7-.1-.7a.6.6 0 0 0 .6-.3l1.3 1a1.88 1.88 0 0 1 -.77.23zm2.5.9a39.77 39.77 0 0 0 5 2.7 1.57 1.57 0 0 0 -1 1.1c0 .1-.1.3-.1.4-2.4-1-4.8-2.1-7.1-3.3a3.72 3.72 0 0 0 3.23-.9zm6.1 4.3c.1 0 .3-.1.4-.1a1.7 1.7 0 0 1 1 0c.4.1 1.1.7.5 1.1q-.3.15-.3.3a1.85 1.85 0 0 0 -.7-.2 6.9 6.9 0 0 1 -.8-.3 2 2 0 0 0 -.07-.77zm4 .2a31.1 31.1 0 0 0 9.1 1.1c.1 0 .2-.1.3-.1l1.8-.3a15.06 15.06 0 0 1 -3.5 1.4c-1.2.3-2.4.3-3.6.6a36.32 36.32 0 0 1 -4.5-1 2.54 2.54 0 0 0 .43-1.67zm15.5-7.1c-.6 1.7-1.7 3.9-3.4 4.9h-.2c-10.7 1.6-20.9-4-28.1-11.5a69.38 69.38 0 0 1 -9.2-12.5c-2.6-4.5-5.6-9.9-7.9-14.6 3.9-1.9 9.1-2.2 13.4-2a27.83 27.83 0 0 1 12 3.5 18 18 0 0 0 5.2 10.1 20.11 20.11 0 0 0 5.5 3.6 14.08 14.08 0 0 0 3.1 1c1.7 0 3.5.1 5-.7a27.06 27.06 0 0 0 2.1-3.7 10 10 0 0 1 .8 1.4 25.44 25.44 0 0 1 1.6 3.8 28.15 28.15 0 0 1 1.4 8.6 18.91 18.91 0 0 1 -1.27 8.13z" fill="#030304"/><path d="m83.23 18.13c-2.2-.6-3.8 1-4.2 3.1-.6 3 2.5 7.5-1.1 9.3l-.1.1c-2.9-7 4.5-13.6 5.8-20.2.9-4.6-1.6-10.9-7.2-10.4-5.9.5-7.7 7.2-6.9 12.1.6 3.7 2.6 8.5 2.8 12.7a14.05 14.05 0 0 0 -4.7-7.3c-2.4-2.2-7-6.5-10.4-3.7-3.1 2.5-.6 6.7 2.2 8.1 2.2 1 4.6 1.1 6.9 1.6 1.8.4 4.3 1.7 4.9 3.5a8.75 8.75 0 0 1 -.2 1.6v.37c-.1.2-.2.3-.3.5a.64.64 0 0 0 .3 1 8.9 8.9 0 0 1 -1.9 2c-.6.5-.1 1.5.6 1.1 4.5-2.8 4.6-8.5 3.5-13.1-1.3-5.5-5.5-15.27 1.77-18.5 3.3-1.4 6.3 1.1 7.1 4.2.9 3.5-.7 7-2.3 10-2.6 4.9-5.8 10.2-3.1 15.8.3.7 1.2.3 1.3-.3.1 0 .2.1.3 0 .4-.1.7-.2 1-.3a2.51 2.51 0 0 0 2.3 2.5c.8.1 1-1.3.2-1.4-3.1-.5 1.1-4.2 1.8-5a9.73 9.73 0 0 0 2.1-3.3c.83-2.67.03-5.37-2.47-6.07zm-23.5 2.2c-2.1-1.1-4.2-5-.8-5.9 2.4-.6 4.6 1.6 6.3 2.9a16.08 16.08 0 0 1 5.1 6.2c-3-2.3-7.2-1.53-10.6-3.2zm21.27 7.2v-.8c-.2-1.7-1-3.4-.7-5.1.5-2.7 3.7-2.6 4.1.1s-1.67 4.1-3.4 5.8z" fill="#020204"/><g fill="#6ac4cb"><ellipse cx="58.43" cy="53.93" rx="6.4" ry="2.2"/><ellipse cx="95.53" cy="38.73" rx="2.6" ry="7.6" transform="matrix(.14988048 -.98870412 .98870412 .14988048 42.91 127.38)"/><ellipse cx="38.63" cy="46.71" rx="6.4" ry="2.2" transform="matrix(.95812289 -.28635733 .28635733 .95812289 -11.76 13.01)"/><ellipse cx="61.62" cy="37.93" rx="8.2" ry="2.8" transform="matrix(.9956111 -.09358703 .09358703 .9956111 -3.28 5.93)"/><ellipse cx="121.32" cy="48.86" rx="2.2" ry="6.4" transform="matrix(.4251475 -.90512408 .90512408 .4251475 25.52 137.9)"/><ellipse cx="90.93" cy="51.73" rx="4.8" ry="1.6"/></g><path d="m85 144.13a5.5 5.5 0 0 0 -.7-.9 2.15 2.15 0 0 0 -3.1-2.6c-.1.1-.2.1-.3.2a.9.9 0 0 0 -.5-.1 3.3 3.3 0 0 0 -2.2.2c-1.6.3-3.3 1-3.3 2.9-.1 2.2 2 3.3 3.9 3.4h.1a3.53 3.53 0 0 0 1.4-.3 7.62 7.62 0 0 0 3.3.2c1.63-.4 2.23-1.7 1.4-3z" fill="#cc352b"/><path d="m86 141.43c-.2-.4-.3-.7-.5-1.1a1.38 1.38 0 0 0 -.6-1.1c-.1-.2-.3-.3-.4-.5a13.42 13.42 0 0 0 -8.2-4.8 1.06 1.06 0 0 0 -.5 2 43.43 43.43 0 0 1 4.3 2.4c-3.6.3-8.3 1.9-7.5 6.5.7 4.1 5.2 5.5 8.7 4.4s6.33-4.1 4.7-7.8zm-3 3.7c-1.5 1.7-5 2.5-6.8 1a2.44 2.44 0 0 1 -.4-3.5c1.1-1.2 3.1-1.1 4.6-1.3 1.8-.2 2.2-.2 3.2.7s.4 1.9-.6 3.1z" fill="#020204"/><ellipse cx="114.16" cy="120.53" fill="#fff" rx="21" ry="13.4" transform="matrix(.16917749 -.9855856 .9855856 .16917749 -23.94 212.67)"/><ellipse cx="113.28" cy="124.63" fill="#1a1a1a" rx="14.3" ry="9.2" transform="matrix(.16917749 -.9855856 .9855856 .16917749 -28.71 215.2)"/><ellipse cx="108.93" cy="122.1" fill="#fff" rx="5.5" ry="3.5" transform="matrix(.16917749 -.9855856 .9855856 .16917749 -29.83 208.81)"/><ellipse cx="39.63" cy="122.04" fill="#fff" rx="13.4" ry="21" transform="matrix(.97514935 -.2215485 .2215485 .97514935 -26.05 11.81)"/><ellipse cx="40.63" cy="125.34" fill="#1a1a1a" rx="9.2" ry="14.3" transform="matrix(.97514935 -.2215485 .2215485 .97514935 -26.75 12.11)"/><ellipse cx="44.43" cy="122.03" fill="#fff" rx="3.5" ry="5.5" transform="matrix(.98 -.22 .22 .98 -25.93 12.87)"/><path d="m130.73 152.13c0 13.4-30.2-19.1-51.8-20.2-30.1-1.5-57.4 33.5-57.4 20.2s24.4-25.3 54.6-25.3 54.6 12 54.6 25.3z" fill="#735aa3"/><path d="m121.33 136.23c-11.8-5.5-28.4-10.6-45-10.6s-33.2 5-44.9 10.9c-.7.3-.4 1.7.3 1.4 11.9-5.1 32.4-10.1 45-10.2s32.3 5.1 44.2 10.4c.9.4 1.3-1.5.4-1.9z" fill="#030304"/><path d="m129 81.73a10.7 10.7 0 0 0 -8.7-7.4c-3.3-.4-7.9.8-9.2 4.2-.3.8.7 1.3 1.3 1 2.5-1.1 4.3-2.8 7.3-2.4a7.9 7.9 0 0 1 6.5 5.4c.73 1.8 3.53 1 2.8-.8z" fill="#020204"/><path d="m42.63 79.23c-3.2-2.7-8.3-2.8-12.2-1.7-3.4 1-8.1 3.5-7.6 7.7.2 1.8 3.1 1.9 2.9 0-.4-3.6 5.5-5.2 8.1-5.5s5.1.6 7.7 1.2c1 .3 2-.93 1.1-1.7z" fill="#020204"/></svg>